# xmcd
# Copyright (C) 1995-1998 Ti Kan
#
# Track frame offsets:
#       150
#       8375
#       18462
#       31950
#       46325
#       64287
#       81462
#       94635
#       104835
#       123262
#       139035
#       158225
#       172522
#       195210
#
# Disc length: 2829 seconds
#
# Revision: 0
# Processed by: cddbd v1.5.1PL0 Copyright (c) Steve Scherf et al.
# Submitted via: CD-Transfer v1.0
#
DISCID=a60b0b0e
DTITLE=Slimboy - 
DYEAR=01
DGENRE=
TTITLE0=Yeah, yeah, yeah
TTITLE1=Ready, steady, go
TTITLE2=You and me
TTITLE3=Fuck that bitch
TTITLE4=Heartbreaking girl
TTITLE5=Petrified and jaded
TTITLE6=Friends
TTITLE7=Sun, fun, baby
TTITLE8=Another morning
TTITLE9=oops!...I did it again
TTITLE10=Like it
TTITLE11=Kiss
TTITLE12=Drownin'
TTITLE13=Good days
EXTD=
EXTT0=
EXTT1=
EXTT2=
EXTT3=
EXTT4=
EXTT5=
EXTT6=
EXTT7=
EXTT8=
EXTT9=
EXTT10=
EXTT11=
EXTT12=
EXTT13=
PLAYORDER=
